<mxfile host="app.diagrams.net" modified="2023-06-22T07:42:36.451Z" agent="Mozilla/5.0 (Windows NT 10.0; Win64; x64) AppleWebKit/537.36 (KHTML, like Gecko) Chrome/114.0.0.0 Safari/537.36" etag="dPBROdFNMFhMSgtWNjJG" version="21.5.0" type="google">
  <diagram name="Page-1" id="k6Rn1W0dhqO1dxkiFyuB">
    <mxGraphModel grid="1" page="1" gridSize="10" guides="1" tooltips="1" connect="1" arrows="1" fold="1" pageScale="1" pageWidth="850" pageHeight="1100" math="0" shadow="0">
      <root>
        <mxCell id="0" />
        <mxCell id="1" parent="0" />
        <mxCell id="eM_KoV3obz6r3nc5yOuG-4" value="Erlang module" style="rounded=1;whiteSpace=wrap;html=1;fillColor=#dae8fc;strokeColor=#6c8ebf;" vertex="1" parent="1">
          <mxGeometry x="150" y="130" width="110" height="30" as="geometry" />
        </mxCell>
        <mxCell id="eM_KoV3obz6r3nc5yOuG-5" value="scaphandre.exe" style="rounded=1;whiteSpace=wrap;html=1;fillColor=#d5e8d4;strokeColor=#82b366;" vertex="1" parent="1">
          <mxGeometry x="410" y="130" width="110" height="30" as="geometry" />
        </mxCell>
        <mxCell id="eM_KoV3obz6r3nc5yOuG-6" value="" style="endArrow=none;dashed=1;html=1;dashPattern=1 3;strokeWidth=2;rounded=0;entryX=0.5;entryY=1;entryDx=0;entryDy=0;startArrow=none;" edge="1" parent="1" source="eM_KoV3obz6r3nc5yOuG-14" target="eM_KoV3obz6r3nc5yOuG-4">
          <mxGeometry width="50" height="50" relative="1" as="geometry">
            <mxPoint x="205" y="400" as="sourcePoint" />
            <mxPoint x="440" y="250" as="targetPoint" />
          </mxGeometry>
        </mxCell>
        <mxCell id="eM_KoV3obz6r3nc5yOuG-7" value="" style="endArrow=none;dashed=1;html=1;dashPattern=1 3;strokeWidth=2;rounded=0;entryX=0.5;entryY=1;entryDx=0;entryDy=0;startArrow=none;" edge="1" parent="1" source="eM_KoV3obz6r3nc5yOuG-11" target="eM_KoV3obz6r3nc5yOuG-5">
          <mxGeometry width="50" height="50" relative="1" as="geometry">
            <mxPoint x="465" y="400" as="sourcePoint" />
            <mxPoint x="460" y="200" as="targetPoint" />
          </mxGeometry>
        </mxCell>
        <mxCell id="eM_KoV3obz6r3nc5yOuG-12" value="" style="endArrow=none;dashed=1;html=1;dashPattern=1 3;strokeWidth=2;rounded=0;entryX=0.5;entryY=1;entryDx=0;entryDy=0;" edge="1" parent="1" target="eM_KoV3obz6r3nc5yOuG-11">
          <mxGeometry width="50" height="50" relative="1" as="geometry">
            <mxPoint x="465" y="400" as="sourcePoint" />
            <mxPoint x="465" y="160" as="targetPoint" />
          </mxGeometry>
        </mxCell>
        <mxCell id="eM_KoV3obz6r3nc5yOuG-11" value="" style="html=1;points=[];perimeter=orthogonalPerimeter;fillColor=#f5f5f5;strokeColor=#666666;fontColor=#333333;" vertex="1" parent="1">
          <mxGeometry x="460" y="190" width="10" height="160" as="geometry" />
        </mxCell>
        <mxCell id="eM_KoV3obz6r3nc5yOuG-13" value="Start measuring" style="html=1;verticalAlign=bottom;endArrow=block;rounded=0;entryX=0.267;entryY=-0.015;entryDx=0;entryDy=0;entryPerimeter=0;" edge="1" parent="1" target="eM_KoV3obz6r3nc5yOuG-11">
          <mxGeometry width="80" relative="1" as="geometry">
            <mxPoint x="210" y="187" as="sourcePoint" />
            <mxPoint x="340" y="200" as="targetPoint" />
          </mxGeometry>
        </mxCell>
        <mxCell id="eM_KoV3obz6r3nc5yOuG-15" value="" style="endArrow=none;dashed=1;html=1;dashPattern=1 3;strokeWidth=2;rounded=0;entryX=0.5;entryY=1;entryDx=0;entryDy=0;" edge="1" parent="1" target="eM_KoV3obz6r3nc5yOuG-14">
          <mxGeometry width="50" height="50" relative="1" as="geometry">
            <mxPoint x="205" y="400" as="sourcePoint" />
            <mxPoint x="205" y="160" as="targetPoint" />
          </mxGeometry>
        </mxCell>
        <mxCell id="eM_KoV3obz6r3nc5yOuG-14" value="" style="html=1;points=[];perimeter=orthogonalPerimeter;fillColor=#f5f5f5;strokeColor=#666666;fontColor=#333333;" vertex="1" parent="1">
          <mxGeometry x="200" y="180" width="10" height="180" as="geometry" />
        </mxCell>
        <mxCell id="eM_KoV3obz6r3nc5yOuG-17" value="Dumping data&amp;nbsp;&lt;br&gt;to Json file" style="edgeStyle=orthogonalEdgeStyle;html=1;align=left;spacingLeft=2;endArrow=block;rounded=0;" edge="1" parent="1">
          <mxGeometry relative="1" as="geometry">
            <mxPoint x="470" y="215" as="sourcePoint" />
            <Array as="points">
              <mxPoint x="494" y="215" />
              <mxPoint x="494" y="325" />
              <mxPoint x="470" y="325" />
            </Array>
            <mxPoint x="470" y="325" as="targetPoint" />
          </mxGeometry>
        </mxCell>
        <mxCell id="eM_KoV3obz6r3nc5yOuG-23" value="launch function" style="edgeStyle=orthogonalEdgeStyle;html=1;align=left;spacingLeft=2;endArrow=block;rounded=0;" edge="1" parent="1">
          <mxGeometry relative="1" as="geometry">
            <mxPoint x="215" y="235" as="sourcePoint" />
            <Array as="points">
              <mxPoint x="335" y="235" />
              <mxPoint x="335" y="295" />
              <mxPoint x="215" y="295" />
            </Array>
            <mxPoint x="215" y="295" as="targetPoint" />
          </mxGeometry>
        </mxCell>
        <mxCell id="eM_KoV3obz6r3nc5yOuG-24" value="" style="html=1;points=[];perimeter=orthogonalPerimeter;fillColor=#e1d5e7;strokeColor=#9673a6;" vertex="1" parent="1">
          <mxGeometry x="200" y="210" width="15" height="110" as="geometry" />
        </mxCell>
        <mxCell id="ZnPK8vp8zLftSf9pe0jA-1" value="" style="endArrow=classic;html=1;rounded=0;entryX=0.267;entryY=1;entryDx=0;entryDy=0;entryPerimeter=0;exitX=-0.01;exitY=0.99;exitDx=0;exitDy=0;exitPerimeter=0;" edge="1" parent="1" source="ZnPK8vp8zLftSf9pe0jA-4" target="eM_KoV3obz6r3nc5yOuG-11">
          <mxGeometry width="50" height="50" relative="1" as="geometry">
            <mxPoint x="170" y="300" as="sourcePoint" />
            <mxPoint x="410" y="340" as="targetPoint" />
            <Array as="points" />
          </mxGeometry>
        </mxCell>
        <mxCell id="ZnPK8vp8zLftSf9pe0jA-3" value="kill scaphandre.exe" style="text;html=1;align=center;verticalAlign=middle;resizable=0;points=[];autosize=1;strokeColor=none;fillColor=none;" vertex="1" parent="1">
          <mxGeometry x="340" y="320" width="130" height="30" as="geometry" />
        </mxCell>
        <mxCell id="ZnPK8vp8zLftSf9pe0jA-4" value="finished" style="text;html=1;align=center;verticalAlign=middle;resizable=0;points=[];autosize=1;strokeColor=none;fillColor=none;" vertex="1" parent="1">
          <mxGeometry x="210" y="320" width="60" height="30" as="geometry" />
        </mxCell>
      </root>
    </mxGraphModel>
  </diagram>
</mxfile>
